<svg xmlns="http://www.w3.org/2000/svg" viewBox="0 0 512 512" width="512" height="512">
  <!-- Maskable icon with safe zone padding -->
  <defs>
    <linearGradient id="maskableGradient" x1="0%" y1="0%" x2="100%" y2="100%">
      <stop offset="0%" style="stop-color:#8B5CF6;stop-opacity:1" />
      <stop offset="50%" style="stop-color:#A855F7;stop-opacity:1" />
      <stop offset="100%" style="stop-color:#7C3AED;stop-opacity:1" />
    </linearGradient>
  </defs>
  
  <!-- Background circle for maskable icon -->
  <circle cx="256" cy="256" r="256" fill="url(#maskableGradient)"/>
  
  <!-- Gaming controller with safe zone padding (smaller) -->
  <g transform="translate(256,256) scale(0.6)">
    <path d="M-120,-60 C-140,-60 -160,-40 -160,-20 L-160,40 C-160,60 -140,80 -120,80 L-80,80 L-60,100 L-20,100 L20,100 L60,100 L80,80 L120,80 C140,80 160,60 160,40 L160,-20 C160,-40 140,-60 120,-60 Z" 
          fill="white" stroke="none"/>
    
    <!-- D-pad -->
    <g transform="translate(-80,0)">
      <!-- Horizontal bar -->
      <rect x="-25" y="-8" width="50" height="16" fill="#8B5CF6" rx="8"/>
      <!-- Vertical bar -->
      <rect x="-8" y="-25" width="16" height="50" fill="#8B5CF6" rx="8"/>
    </g>
    
    <!-- Action buttons -->
    <g transform="translate(80,0)">
      <circle cx="0" cy="-20" r="10" fill="#8B5CF6"/>
      <circle cx="20" cy="0" r="10" fill="#8B5CF6"/>
      <circle cx="0" cy="20" r="10" fill="#8B5CF6"/>
      <circle cx="-20" cy="0" r="10" fill="#8B5CF6"/>
    </g>
  </g>
</svg>
