<svg xmlns="http://www.w3.org/2000/svg" viewBox="0 0 192 192" width="192" height="192">
  <!-- Maskable 192x192 with safe zone -->
  <defs>
    <linearGradient id="maskable192Gradient" x1="0%" y1="0%" x2="100%" y2="100%">
      <stop offset="0%" style="stop-color:#8B5CF6;stop-opacity:1" />
      <stop offset="50%" style="stop-color:#A855F7;stop-opacity:1" />
      <stop offset="100%" style="stop-color:#7C3AED;stop-opacity:1" />
    </linearGradient>
  </defs>
  
  <!-- Background circle -->
  <circle cx="96" cy="96" r="96" fill="url(#maskable192Gradient)"/>
  
  <!-- Gaming controller with safe zone padding -->
  <g transform="translate(96,96) scale(0.55)">
    <path d="M-80,-40 C-95,-40 -110,-25 -110,-10 L-110,30 C-110,45 -95,60 -80,60 L-50,60 L-35,75 L-15,75 L15,75 L35,75 L50,60 L80,60 C95,60 110,45 110,30 L110,-10 C110,-25 95,-40 80,-40 Z" 
          fill="white" stroke="none"/>
    
    <!-- D-pad -->
    <g transform="translate(-55,5)">
      <rect x="-18" y="-6" width="36" height="12" fill="#8B5CF6" rx="6"/>
      <rect x="-6" y="-18" width="12" height="36" fill="#8B5CF6" rx="6"/>
    </g>
    
    <!-- Action buttons -->
    <g transform="translate(55,5)">
      <circle cx="0" cy="-15" r="8" fill="#8B5CF6"/>
      <circle cx="15" cy="0" r="8" fill="#8B5CF6"/>
      <circle cx="0" cy="15" r="8" fill="#8B5CF6"/>
      <circle cx="-15" cy="0" r="8" fill="#8B5CF6"/>
    </g>
  </g>
</svg>
